<?xml version="1.0" encoding="UTF-8" standalone="no"?>
<!DOCTYPE score-partwise PUBLIC "-//Recordare//DTD MusicXML 3.1 Partwise//EN" "http://www.musicxml.org/dtds/partwise.dtd">
<score-partwise version="3.1">
  <work>
    <work-title>Unbenanntes Projekt 1</work-title>
  </work>
  <movement-title>Partie 1</movement-title>
  <identification>
    <encoding>
      <software>Dorico 4.3.30.1132</software>
      <encoding-date>2024-01-21</encoding-date>
    </encoding>
  </identification>
  <part-list>
    <score-part id="P1">
      <part-name>de6</part-name>
    </score-part>
  </part-list>
  <part id="P1">
    <measure number="1">
      <attributes>
        <divisions>4</divisions>
        <key number="1">
          <fifths>0</fifths>
          <mode>major</mode>
        </key>
        <time>
          <beats>6</beats>
          <beat-type>8</beat-type>
        </time>
        <staves>1</staves>
        <clef number="1">
          <sign>F</sign>
          <line>4</line>
        </clef>
      </attributes>
      <sound tempo="99"/>
      <direction placement="above" directive="yes">
        <direction-type>
          <metronome>
            <beat-unit>quarter</beat-unit>
            <beat-unit-dot/>
            <per-minute>66</per-minute>
          </metronome>
        </direction-type>
        <staff>1</staff>
      </direction>
      <note>
        <rest/>
        <duration>12</duration>
        <voice>1</voice>
        <type>whole</type>
        <staff>1</staff>
      </note>
    </measure>
    <measure number="2">
      <attributes>
        <divisions>4</divisions>
      </attributes>
      <direction placement="above">
        <direction-type>
          <dynamics>
            <ppp/>
          </dynamics>
        </direction-type>
        <staff>1</staff>
      </direction>
      <note>
        <pitch>
          <step>G</step>
          <octave>2</octave>
        </pitch>
        <duration>1</duration>
        <voice>1</voice>
        <type>16th</type>
        <stem>up</stem>
        <staff>1</staff>
        <notations>
          <articulations>
            <accent placement="below"/>
          </articulations>
        </notations>
        <lyric number="1" placement="below">
          <syllabic>single</syllabic>
          <text>$</text>
        </lyric>
      </note>
      <note>
        <pitch>
          <step>G</step>
          <octave>2</octave>
        </pitch>
        <duration>1</duration>
        <voice>1</voice>
        <type>16th</type>
        <stem>up</stem>
        <staff>1</staff>
        <lyric number="1" placement="below">
          <syllabic>single</syllabic>
          <text>$</text>
        </lyric>
      </note>
      <note>
        <pitch>
          <step>G</step>
          <octave>2</octave>
        </pitch>
        <duration>1</duration>
        <voice>1</voice>
        <type>16th</type>
        <stem>up</stem>
        <staff>1</staff>
        <lyric number="1" placement="below">
          <syllabic>single</syllabic>
          <text>$</text>
        </lyric>
      </note>
      <note>
        <pitch>
          <step>G</step>
          <octave>2</octave>
        </pitch>
        <duration>1</duration>
        <voice>1</voice>
        <type>16th</type>
        <stem>up</stem>
        <staff>1</staff>
        <lyric number="1" placement="below">
          <syllabic>single</syllabic>
          <text>$</text>
        </lyric>
      </note>
      <note>
        <pitch>
          <step>G</step>
          <octave>2</octave>
        </pitch>
        <duration>1</duration>
        <voice>1</voice>
        <type>16th</type>
        <stem>up</stem>
        <staff>1</staff>
        <lyric number="1" placement="below">
          <syllabic>single</syllabic>
          <text>$</text>
        </lyric>
      </note>
      <note>
        <pitch>
          <step>G</step>
          <octave>2</octave>
        </pitch>
        <duration>1</duration>
        <voice>1</voice>
        <type>16th</type>
        <stem>up</stem>
        <staff>1</staff>
        <lyric number="1" placement="below">
          <syllabic>single</syllabic>
          <text>$</text>
        </lyric>
      </note>
      <note>
        <pitch>
          <step>G</step>
          <octave>2</octave>
        </pitch>
        <duration>1</duration>
        <voice>1</voice>
        <type>16th</type>
        <stem>up</stem>
        <staff>1</staff>
        <notations>
          <articulations>
            <accent placement="below"/>
          </articulations>
        </notations>
        <lyric number="1" placement="below">
          <syllabic>single</syllabic>
          <text>$</text>
        </lyric>
      </note>
      <note>
        <pitch>
          <step>G</step>
          <octave>2</octave>
        </pitch>
        <duration>1</duration>
        <voice>1</voice>
        <type>16th</type>
        <stem>up</stem>
        <staff>1</staff>
        <lyric number="1" placement="below">
          <syllabic>single</syllabic>
          <text>$</text>
        </lyric>
      </note>
      <note>
        <pitch>
          <step>G</step>
          <octave>2</octave>
        </pitch>
        <duration>1</duration>
        <voice>1</voice>
        <type>16th</type>
        <stem>up</stem>
        <staff>1</staff>
        <lyric number="1" placement="below">
          <syllabic>single</syllabic>
          <text>$</text>
        </lyric>
      </note>
      <note>
        <pitch>
          <step>G</step>
          <octave>2</octave>
        </pitch>
        <duration>1</duration>
        <voice>1</voice>
        <type>16th</type>
        <stem>up</stem>
        <staff>1</staff>
        <lyric number="1" placement="below">
          <syllabic>single</syllabic>
          <text>$</text>
        </lyric>
      </note>
      <note>
        <pitch>
          <step>G</step>
          <octave>2</octave>
        </pitch>
        <duration>1</duration>
        <voice>1</voice>
        <type>16th</type>
        <stem>up</stem>
        <staff>1</staff>
        <lyric number="1" placement="below">
          <syllabic>single</syllabic>
          <text>$</text>
        </lyric>
      </note>
      <note>
        <pitch>
          <step>G</step>
          <octave>2</octave>
        </pitch>
        <duration>1</duration>
        <voice>1</voice>
        <type>16th</type>
        <stem>up</stem>
        <staff>1</staff>
        <lyric number="1" placement="below">
          <syllabic>single</syllabic>
          <text>$</text>
        </lyric>
      </note>
    </measure>
    <measure number="3">
      <attributes>
        <divisions>4</divisions>
      </attributes>
      <note>
        <pitch>
          <step>G</step>
          <octave>2</octave>
        </pitch>
        <duration>1</duration>
        <voice>1</voice>
        <type>16th</type>
        <stem>up</stem>
        <staff>1</staff>
        <notations>
          <articulations>
            <accent placement="below"/>
          </articulations>
        </notations>
        <lyric number="1" placement="below">
          <syllabic>single</syllabic>
          <text>$</text>
        </lyric>
      </note>
      <note>
        <pitch>
          <step>G</step>
          <alter>1</alter>
          <octave>2</octave>
        </pitch>
        <duration>1</duration>
        <voice>1</voice>
        <type>16th</type>
        <accidental>sharp</accidental>
        <stem>up</stem>
        <staff>1</staff>
        <lyric number="1" placement="below">
          <syllabic>single</syllabic>
          <text>$</text>
        </lyric>
      </note>
      <note>
        <pitch>
          <step>A</step>
          <octave>2</octave>
        </pitch>
        <duration>1</duration>
        <voice>1</voice>
        <type>16th</type>
        <stem>up</stem>
        <staff>1</staff>
        <lyric number="1" placement="below">
          <syllabic>single</syllabic>
          <text>$</text>
        </lyric>
      </note>
      <note>
        <pitch>
          <step>A</step>
          <alter>1</alter>
          <octave>2</octave>
        </pitch>
        <duration>1</duration>
        <voice>1</voice>
        <type>16th</type>
        <accidental>sharp</accidental>
        <stem>up</stem>
        <staff>1</staff>
        <lyric number="1" placement="below">
          <syllabic>single</syllabic>
          <text>$</text>
        </lyric>
      </note>
      <direction>
        <direction-type>
          <wedge type="crescendo" number="1"/>
        </direction-type>
        <staff>1</staff>
      </direction>
      <note>
        <pitch>
          <step>G</step>
          <octave>2</octave>
        </pitch>
        <duration>1</duration>
        <voice>1</voice>
        <type>16th</type>
        <accidental>natural</accidental>
        <stem>up</stem>
        <staff>1</staff>
        <notations>
          <articulations>
            <accent placement="below"/>
          </articulations>
        </notations>
        <lyric number="1" placement="below">
          <syllabic>single</syllabic>
          <text>$</text>
        </lyric>
      </note>
      <note>
        <pitch>
          <step>G</step>
          <alter>1</alter>
          <octave>2</octave>
        </pitch>
        <duration>1</duration>
        <voice>1</voice>
        <type>16th</type>
        <accidental>sharp</accidental>
        <stem>up</stem>
        <staff>1</staff>
        <lyric number="1" placement="below">
          <syllabic>single</syllabic>
          <text>$</text>
        </lyric>
      </note>
      <note>
        <pitch>
          <step>A</step>
          <octave>2</octave>
        </pitch>
        <duration>1</duration>
        <voice>1</voice>
        <type>16th</type>
        <accidental>natural</accidental>
        <stem>up</stem>
        <staff>1</staff>
        <lyric number="1" placement="below">
          <syllabic>single</syllabic>
          <text>$</text>
        </lyric>
      </note>
      <note>
        <pitch>
          <step>A</step>
          <alter>1</alter>
          <octave>2</octave>
        </pitch>
        <duration>1</duration>
        <voice>1</voice>
        <type>16th</type>
        <accidental>sharp</accidental>
        <stem>up</stem>
        <staff>1</staff>
        <lyric number="1" placement="below">
          <syllabic>single</syllabic>
          <text>$</text>
        </lyric>
      </note>
      <note>
        <pitch>
          <step>G</step>
          <octave>2</octave>
        </pitch>
        <duration>1</duration>
        <voice>1</voice>
        <type>16th</type>
        <accidental>natural</accidental>
        <stem>up</stem>
        <staff>1</staff>
        <notations>
          <articulations>
            <accent placement="below"/>
          </articulations>
        </notations>
        <lyric number="1" placement="below">
          <syllabic>single</syllabic>
          <text>$</text>
        </lyric>
      </note>
      <note>
        <pitch>
          <step>G</step>
          <alter>1</alter>
          <octave>2</octave>
        </pitch>
        <duration>1</duration>
        <voice>1</voice>
        <type>16th</type>
        <accidental>sharp</accidental>
        <stem>up</stem>
        <staff>1</staff>
        <lyric number="1" placement="below">
          <syllabic>single</syllabic>
          <text>$</text>
        </lyric>
      </note>
      <note>
        <pitch>
          <step>A</step>
          <octave>2</octave>
        </pitch>
        <duration>1</duration>
        <voice>1</voice>
        <type>16th</type>
        <accidental>natural</accidental>
        <stem>up</stem>
        <staff>1</staff>
        <lyric number="1" placement="below">
          <syllabic>single</syllabic>
          <text>$</text>
        </lyric>
      </note>
      <note>
        <pitch>
          <step>A</step>
          <alter>1</alter>
          <octave>2</octave>
        </pitch>
        <duration>1</duration>
        <voice>1</voice>
        <type>16th</type>
        <accidental>sharp</accidental>
        <stem>up</stem>
        <staff>1</staff>
        <lyric number="1" placement="below">
          <syllabic>single</syllabic>
          <text>$</text>
        </lyric>
      </note>
    </measure>
    <measure number="4">
      <attributes>
        <divisions>4</divisions>
      </attributes>
      <note>
        <pitch>
          <step>G</step>
          <octave>2</octave>
        </pitch>
        <duration>1</duration>
        <voice>1</voice>
        <type>16th</type>
        <accidental cautionary="yes">natural</accidental>
        <stem>up</stem>
        <staff>1</staff>
        <notations>
          <articulations>
            <accent placement="below"/>
          </articulations>
        </notations>
        <lyric number="1" placement="below">
          <syllabic>single</syllabic>
          <text>$</text>
        </lyric>
      </note>
      <note>
        <pitch>
          <step>G</step>
          <alter>1</alter>
          <octave>2</octave>
        </pitch>
        <duration>1</duration>
        <voice>1</voice>
        <type>16th</type>
        <accidental>sharp</accidental>
        <stem>up</stem>
        <staff>1</staff>
        <lyric number="1" placement="below">
          <syllabic>single</syllabic>
          <text>$</text>
        </lyric>
      </note>
      <note>
        <pitch>
          <step>A</step>
          <octave>2</octave>
        </pitch>
        <duration>1</duration>
        <voice>1</voice>
        <type>16th</type>
        <accidental cautionary="yes">natural</accidental>
        <stem>up</stem>
        <staff>1</staff>
        <lyric number="1" placement="below">
          <syllabic>single</syllabic>
          <text>$</text>
        </lyric>
      </note>
      <note>
        <pitch>
          <step>A</step>
          <alter>1</alter>
          <octave>2</octave>
        </pitch>
        <duration>1</duration>
        <voice>1</voice>
        <type>16th</type>
        <accidental>sharp</accidental>
        <stem>up</stem>
        <staff>1</staff>
        <lyric number="1" placement="below">
          <syllabic>single</syllabic>
          <text>$</text>
        </lyric>
      </note>
      <note>
        <pitch>
          <step>G</step>
          <octave>2</octave>
        </pitch>
        <duration>1</duration>
        <voice>1</voice>
        <type>16th</type>
        <accidental>natural</accidental>
        <stem>up</stem>
        <staff>1</staff>
        <notations>
          <articulations>
            <accent placement="below"/>
          </articulations>
        </notations>
        <lyric number="1" placement="below">
          <syllabic>single</syllabic>
          <text>$</text>
        </lyric>
      </note>
      <note>
        <pitch>
          <step>G</step>
          <alter>1</alter>
          <octave>2</octave>
        </pitch>
        <duration>1</duration>
        <voice>1</voice>
        <type>16th</type>
        <accidental>sharp</accidental>
        <stem>up</stem>
        <staff>1</staff>
        <lyric number="1" placement="below">
          <syllabic>single</syllabic>
          <text>$</text>
        </lyric>
      </note>
      <note>
        <pitch>
          <step>A</step>
          <octave>2</octave>
        </pitch>
        <duration>1</duration>
        <voice>1</voice>
        <type>16th</type>
        <accidental>natural</accidental>
        <stem>up</stem>
        <staff>1</staff>
        <lyric number="1" placement="below">
          <syllabic>single</syllabic>
          <text>$</text>
        </lyric>
      </note>
      <direction>
        <direction-type>
          <wedge type="stop" number="1"/>
        </direction-type>
        <staff>1</staff>
      </direction>
      <direction placement="above">
        <direction-type>
          <dynamics>
            <ff/>
          </dynamics>
        </direction-type>
        <staff>1</staff>
      </direction>
      <note>
        <pitch>
          <step>A</step>
          <alter>1</alter>
          <octave>2</octave>
        </pitch>
        <duration>1</duration>
        <voice>1</voice>
        <type>16th</type>
        <accidental>sharp</accidental>
        <stem>up</stem>
        <staff>1</staff>
        <lyric number="1" placement="below">
          <syllabic>single</syllabic>
          <text>$</text>
        </lyric>
      </note>
      <direction>
        <direction-type>
          <wedge type="diminuendo" number="1"/>
        </direction-type>
        <staff>1</staff>
      </direction>
      <note>
        <pitch>
          <step>E</step>
          <octave>3</octave>
        </pitch>
        <duration>1</duration>
        <voice>1</voice>
        <type>16th</type>
        <stem>down</stem>
        <staff>1</staff>
        <notations>
          <articulations>
            <accent placement="above"/>
          </articulations>
        </notations>
        <lyric number="1" placement="below">
          <syllabic>single</syllabic>
          <text>$</text>
        </lyric>
      </note>
      <note>
        <pitch>
          <step>E</step>
          <octave>3</octave>
        </pitch>
        <duration>1</duration>
        <voice>1</voice>
        <type>16th</type>
        <stem>down</stem>
        <staff>1</staff>
        <lyric number="1" placement="below">
          <syllabic>single</syllabic>
          <text>$</text>
        </lyric>
      </note>
      <note>
        <pitch>
          <step>E</step>
          <octave>3</octave>
        </pitch>
        <duration>1</duration>
        <voice>1</voice>
        <type>16th</type>
        <stem>down</stem>
        <staff>1</staff>
        <lyric number="1" placement="below">
          <syllabic>single</syllabic>
          <text>$</text>
        </lyric>
      </note>
      <note>
        <pitch>
          <step>E</step>
          <octave>3</octave>
        </pitch>
        <duration>1</duration>
        <voice>1</voice>
        <type>16th</type>
        <stem>down</stem>
        <staff>1</staff>
        <lyric number="1" placement="below">
          <syllabic>single</syllabic>
          <text>$</text>
        </lyric>
      </note>
    </measure>
    <measure number="5">
      <attributes>
        <divisions>4</divisions>
      </attributes>
      <note>
        <pitch>
          <step>E</step>
          <octave>3</octave>
        </pitch>
        <duration>1</duration>
        <voice>1</voice>
        <type>16th</type>
        <stem>down</stem>
        <staff>1</staff>
        <notations>
          <articulations>
            <accent placement="above"/>
          </articulations>
        </notations>
        <lyric number="1" placement="below">
          <syllabic>single</syllabic>
          <text>$</text>
        </lyric>
      </note>
      <note>
        <pitch>
          <step>E</step>
          <octave>3</octave>
        </pitch>
        <duration>1</duration>
        <voice>1</voice>
        <type>16th</type>
        <stem>down</stem>
        <staff>1</staff>
        <lyric number="1" placement="below">
          <syllabic>single</syllabic>
          <text>$</text>
        </lyric>
      </note>
      <note>
        <pitch>
          <step>E</step>
          <octave>3</octave>
        </pitch>
        <duration>1</duration>
        <voice>1</voice>
        <type>16th</type>
        <stem>down</stem>
        <staff>1</staff>
        <lyric number="1" placement="below">
          <syllabic>single</syllabic>
          <text>$</text>
        </lyric>
      </note>
      <note>
        <pitch>
          <step>E</step>
          <octave>3</octave>
        </pitch>
        <duration>1</duration>
        <voice>1</voice>
        <type>16th</type>
        <stem>down</stem>
        <staff>1</staff>
        <lyric number="1" placement="below">
          <syllabic>single</syllabic>
          <text>$</text>
        </lyric>
      </note>
      <note>
        <pitch>
          <step>E</step>
          <octave>3</octave>
        </pitch>
        <duration>1</duration>
        <voice>1</voice>
        <type>16th</type>
        <stem>down</stem>
        <staff>1</staff>
        <notations>
          <articulations>
            <accent placement="above"/>
          </articulations>
        </notations>
        <lyric number="1" placement="below">
          <syllabic>single</syllabic>
          <text>$</text>
        </lyric>
      </note>
      <note>
        <pitch>
          <step>E</step>
          <octave>3</octave>
        </pitch>
        <duration>1</duration>
        <voice>1</voice>
        <type>16th</type>
        <stem>down</stem>
        <staff>1</staff>
        <lyric number="1" placement="below">
          <syllabic>single</syllabic>
          <text>$</text>
        </lyric>
      </note>
      <note>
        <pitch>
          <step>E</step>
          <octave>3</octave>
        </pitch>
        <duration>1</duration>
        <voice>1</voice>
        <type>16th</type>
        <stem>down</stem>
        <staff>1</staff>
        <lyric number="1" placement="below">
          <syllabic>single</syllabic>
          <text>$</text>
        </lyric>
      </note>
      <note>
        <pitch>
          <step>E</step>
          <octave>3</octave>
        </pitch>
        <duration>1</duration>
        <voice>1</voice>
        <type>16th</type>
        <stem>down</stem>
        <staff>1</staff>
        <lyric number="1" placement="below">
          <syllabic>single</syllabic>
          <text>$</text>
        </lyric>
      </note>
      <direction>
        <direction-type>
          <wedge type="stop" number="1"/>
        </direction-type>
        <staff>1</staff>
      </direction>
      <direction placement="above">
        <direction-type>
          <dynamics>
            <pp/>
          </dynamics>
        </direction-type>
        <staff>1</staff>
      </direction>
      <note>
        <pitch>
          <step>E</step>
          <octave>3</octave>
        </pitch>
        <duration>1</duration>
        <voice>1</voice>
        <type>16th</type>
        <stem>down</stem>
        <staff>1</staff>
        <notations>
          <articulations>
            <accent placement="above"/>
          </articulations>
        </notations>
        <lyric number="1" placement="below">
          <syllabic>single</syllabic>
          <text>$</text>
        </lyric>
      </note>
      <note>
        <pitch>
          <step>E</step>
          <octave>3</octave>
        </pitch>
        <duration>1</duration>
        <voice>1</voice>
        <type>16th</type>
        <stem>down</stem>
        <staff>1</staff>
        <lyric number="1" placement="below">
          <syllabic>single</syllabic>
          <text>$</text>
        </lyric>
      </note>
      <note>
        <pitch>
          <step>E</step>
          <octave>3</octave>
        </pitch>
        <duration>1</duration>
        <voice>1</voice>
        <type>16th</type>
        <stem>down</stem>
        <staff>1</staff>
        <lyric number="1" placement="below">
          <syllabic>single</syllabic>
          <text>$</text>
        </lyric>
      </note>
      <note>
        <pitch>
          <step>E</step>
          <octave>3</octave>
        </pitch>
        <duration>1</duration>
        <voice>1</voice>
        <type>16th</type>
        <stem>down</stem>
        <staff>1</staff>
        <lyric number="1" placement="below">
          <syllabic>single</syllabic>
          <text>$</text>
        </lyric>
      </note>
    </measure>
    <measure number="6">
      <attributes>
        <divisions>4</divisions>
      </attributes>
      <note>
        <pitch>
          <step>E</step>
          <octave>3</octave>
        </pitch>
        <duration>1</duration>
        <voice>1</voice>
        <type>16th</type>
        <stem>down</stem>
        <staff>1</staff>
        <notations>
          <articulations>
            <accent placement="above"/>
          </articulations>
        </notations>
        <lyric number="1" placement="below">
          <syllabic>single</syllabic>
          <text>$</text>
        </lyric>
      </note>
      <note>
        <pitch>
          <step>E</step>
          <octave>3</octave>
        </pitch>
        <duration>1</duration>
        <voice>1</voice>
        <type>16th</type>
        <stem>down</stem>
        <staff>1</staff>
        <lyric number="1" placement="below">
          <syllabic>single</syllabic>
          <text>$</text>
        </lyric>
      </note>
      <note>
        <pitch>
          <step>E</step>
          <octave>3</octave>
        </pitch>
        <duration>1</duration>
        <voice>1</voice>
        <type>16th</type>
        <stem>down</stem>
        <staff>1</staff>
        <lyric number="1" placement="below">
          <syllabic>single</syllabic>
          <text>$</text>
        </lyric>
      </note>
      <note>
        <pitch>
          <step>E</step>
          <octave>3</octave>
        </pitch>
        <duration>1</duration>
        <voice>1</voice>
        <type>16th</type>
        <stem>down</stem>
        <staff>1</staff>
        <lyric number="1" placement="below">
          <syllabic>single</syllabic>
          <text>$</text>
        </lyric>
      </note>
      <direction placement="above">
        <direction-type>
          <dynamics>
            <ff/>
          </dynamics>
        </direction-type>
        <staff>1</staff>
      </direction>
      <note>
        <pitch>
          <step>E</step>
          <octave>3</octave>
        </pitch>
        <duration>1</duration>
        <voice>1</voice>
        <type>16th</type>
        <stem>down</stem>
        <staff>1</staff>
        <notations>
          <articulations>
            <accent placement="above"/>
          </articulations>
        </notations>
        <lyric number="1" placement="below">
          <syllabic>single</syllabic>
          <text>$</text>
        </lyric>
      </note>
      <direction>
        <direction-type>
          <wedge type="diminuendo" number="1"/>
        </direction-type>
        <staff>1</staff>
      </direction>
      <note>
        <pitch>
          <step>E</step>
          <octave>3</octave>
        </pitch>
        <duration>1</duration>
        <voice>1</voice>
        <type>16th</type>
        <stem>down</stem>
        <staff>1</staff>
        <lyric number="1" placement="below">
          <syllabic>single</syllabic>
          <text>$</text>
        </lyric>
      </note>
      <note>
        <pitch>
          <step>E</step>
          <octave>3</octave>
        </pitch>
        <duration>1</duration>
        <voice>1</voice>
        <type>16th</type>
        <stem>down</stem>
        <staff>1</staff>
        <lyric number="1" placement="below">
          <syllabic>single</syllabic>
          <text>$</text>
        </lyric>
      </note>
      <note>
        <pitch>
          <step>E</step>
          <octave>3</octave>
        </pitch>
        <duration>1</duration>
        <voice>1</voice>
        <type>16th</type>
        <stem>down</stem>
        <staff>1</staff>
        <lyric number="1" placement="below">
          <syllabic>single</syllabic>
          <text>$</text>
        </lyric>
      </note>
      <note>
        <pitch>
          <step>E</step>
          <octave>3</octave>
        </pitch>
        <duration>1</duration>
        <voice>1</voice>
        <type>16th</type>
        <stem>down</stem>
        <staff>1</staff>
        <notations>
          <articulations>
            <accent placement="above"/>
          </articulations>
        </notations>
        <lyric number="1" placement="below">
          <syllabic>single</syllabic>
          <text>$</text>
        </lyric>
      </note>
      <note>
        <pitch>
          <step>E</step>
          <octave>3</octave>
        </pitch>
        <duration>1</duration>
        <voice>1</voice>
        <type>16th</type>
        <stem>down</stem>
        <staff>1</staff>
        <lyric number="1" placement="below">
          <syllabic>single</syllabic>
          <text>$</text>
        </lyric>
      </note>
      <note>
        <pitch>
          <step>E</step>
          <octave>3</octave>
        </pitch>
        <duration>1</duration>
        <voice>1</voice>
        <type>16th</type>
        <stem>down</stem>
        <staff>1</staff>
        <lyric number="1" placement="below">
          <syllabic>single</syllabic>
          <text>$</text>
        </lyric>
      </note>
      <note>
        <pitch>
          <step>E</step>
          <octave>3</octave>
        </pitch>
        <duration>1</duration>
        <voice>1</voice>
        <type>16th</type>
        <stem>down</stem>
        <staff>1</staff>
        <lyric number="1" placement="below">
          <syllabic>single</syllabic>
          <text>$</text>
        </lyric>
      </note>
    </measure>
    <measure number="7">
      <attributes>
        <divisions>4</divisions>
      </attributes>
      <note>
        <pitch>
          <step>E</step>
          <octave>3</octave>
        </pitch>
        <duration>1</duration>
        <voice>1</voice>
        <type>16th</type>
        <stem>down</stem>
        <staff>1</staff>
        <notations>
          <articulations>
            <accent placement="above"/>
          </articulations>
        </notations>
        <lyric number="1" placement="below">
          <syllabic>single</syllabic>
          <text>$</text>
        </lyric>
      </note>
      <note>
        <pitch>
          <step>E</step>
          <octave>3</octave>
        </pitch>
        <duration>1</duration>
        <voice>1</voice>
        <type>16th</type>
        <stem>down</stem>
        <staff>1</staff>
        <lyric number="1" placement="below">
          <syllabic>single</syllabic>
          <text>$</text>
        </lyric>
      </note>
      <note>
        <pitch>
          <step>E</step>
          <octave>3</octave>
        </pitch>
        <duration>1</duration>
        <voice>1</voice>
        <type>16th</type>
        <stem>down</stem>
        <staff>1</staff>
        <lyric number="1" placement="below">
          <syllabic>single</syllabic>
          <text>$</text>
        </lyric>
      </note>
      <note>
        <pitch>
          <step>E</step>
          <octave>3</octave>
        </pitch>
        <duration>1</duration>
        <voice>1</voice>
        <type>16th</type>
        <stem>down</stem>
        <staff>1</staff>
        <lyric number="1" placement="below">
          <syllabic>single</syllabic>
          <text>$</text>
        </lyric>
      </note>
      <direction>
        <direction-type>
          <wedge type="stop" number="1"/>
        </direction-type>
        <staff>1</staff>
      </direction>
      <direction placement="above">
        <direction-type>
          <dynamics>
            <pp/>
          </dynamics>
        </direction-type>
        <staff>1</staff>
      </direction>
      <note>
        <pitch>
          <step>E</step>
          <octave>3</octave>
        </pitch>
        <duration>1</duration>
        <voice>1</voice>
        <type>16th</type>
        <stem>down</stem>
        <staff>1</staff>
        <notations>
          <articulations>
            <accent placement="above"/>
          </articulations>
        </notations>
        <lyric number="1" placement="below">
          <syllabic>single</syllabic>
          <text>$</text>
        </lyric>
      </note>
      <note>
        <pitch>
          <step>E</step>
          <octave>3</octave>
        </pitch>
        <duration>1</duration>
        <voice>1</voice>
        <type>16th</type>
        <stem>down</stem>
        <staff>1</staff>
        <lyric number="1" placement="below">
          <syllabic>single</syllabic>
          <text>$</text>
        </lyric>
      </note>
      <note>
        <pitch>
          <step>E</step>
          <octave>3</octave>
        </pitch>
        <duration>1</duration>
        <voice>1</voice>
        <type>16th</type>
        <stem>down</stem>
        <staff>1</staff>
        <lyric number="1" placement="below">
          <syllabic>single</syllabic>
          <text>$</text>
        </lyric>
      </note>
      <note>
        <pitch>
          <step>E</step>
          <octave>3</octave>
        </pitch>
        <duration>1</duration>
        <voice>1</voice>
        <type>16th</type>
        <stem>down</stem>
        <staff>1</staff>
        <lyric number="1" placement="below">
          <syllabic>single</syllabic>
          <text>$</text>
        </lyric>
      </note>
      <note>
        <pitch>
          <step>E</step>
          <octave>3</octave>
        </pitch>
        <duration>1</duration>
        <voice>1</voice>
        <type>16th</type>
        <stem>down</stem>
        <staff>1</staff>
        <notations>
          <articulations>
            <accent placement="above"/>
          </articulations>
        </notations>
        <lyric number="1" placement="below">
          <syllabic>single</syllabic>
          <text>$</text>
        </lyric>
      </note>
      <note>
        <pitch>
          <step>E</step>
          <octave>3</octave>
        </pitch>
        <duration>1</duration>
        <voice>1</voice>
        <type>16th</type>
        <stem>down</stem>
        <staff>1</staff>
        <lyric number="1" placement="below">
          <syllabic>single</syllabic>
          <text>$</text>
        </lyric>
      </note>
      <note>
        <pitch>
          <step>E</step>
          <octave>3</octave>
        </pitch>
        <duration>1</duration>
        <voice>1</voice>
        <type>16th</type>
        <stem>down</stem>
        <staff>1</staff>
        <lyric number="1" placement="below">
          <syllabic>single</syllabic>
          <text>$</text>
        </lyric>
      </note>
      <note>
        <pitch>
          <step>E</step>
          <octave>3</octave>
        </pitch>
        <duration>1</duration>
        <voice>1</voice>
        <type>16th</type>
        <stem>down</stem>
        <staff>1</staff>
        <lyric number="1" placement="below">
          <syllabic>single</syllabic>
          <text>$</text>
        </lyric>
      </note>
    </measure>
    <measure number="8">
      <attributes>
        <divisions>4</divisions>
      </attributes>
      <direction placement="above">
        <direction-type>
          <dynamics>
            <mf/>
          </dynamics>
        </direction-type>
        <staff>1</staff>
      </direction>
      <note>
        <pitch>
          <step>C</step>
          <octave>3</octave>
        </pitch>
        <duration>1</duration>
        <voice>1</voice>
        <type>16th</type>
        <stem>up</stem>
        <staff>1</staff>
        <notations>
          <articulations>
            <accent placement="below"/>
          </articulations>
        </notations>
        <lyric number="1" placement="below">
          <syllabic>single</syllabic>
          <text>$</text>
        </lyric>
      </note>
      <note>
        <pitch>
          <step>C</step>
          <octave>3</octave>
        </pitch>
        <duration>1</duration>
        <voice>1</voice>
        <type>16th</type>
        <stem>up</stem>
        <staff>1</staff>
        <lyric number="1" placement="below">
          <syllabic>single</syllabic>
          <text>$</text>
        </lyric>
      </note>
      <note>
        <pitch>
          <step>C</step>
          <octave>3</octave>
        </pitch>
        <duration>1</duration>
        <voice>1</voice>
        <type>16th</type>
        <stem>up</stem>
        <staff>1</staff>
        <lyric number="1" placement="below">
          <syllabic>single</syllabic>
          <text>$</text>
        </lyric>
      </note>
      <note>
        <pitch>
          <step>C</step>
          <octave>3</octave>
        </pitch>
        <duration>1</duration>
        <voice>1</voice>
        <type>16th</type>
        <stem>up</stem>
        <staff>1</staff>
        <lyric number="1" placement="below">
          <syllabic>single</syllabic>
          <text>$</text>
        </lyric>
      </note>
      <note>
        <pitch>
          <step>C</step>
          <octave>3</octave>
        </pitch>
        <duration>1</duration>
        <voice>1</voice>
        <type>16th</type>
        <stem>up</stem>
        <staff>1</staff>
        <notations>
          <articulations>
            <accent placement="below"/>
          </articulations>
        </notations>
        <lyric number="1" placement="below">
          <syllabic>single</syllabic>
          <text>$</text>
        </lyric>
      </note>
      <note>
        <pitch>
          <step>C</step>
          <octave>3</octave>
        </pitch>
        <duration>1</duration>
        <voice>1</voice>
        <type>16th</type>
        <stem>up</stem>
        <staff>1</staff>
        <lyric number="1" placement="below">
          <syllabic>single</syllabic>
          <text>$</text>
        </lyric>
      </note>
      <note>
        <pitch>
          <step>C</step>
          <octave>3</octave>
        </pitch>
        <duration>1</duration>
        <voice>1</voice>
        <type>16th</type>
        <stem>up</stem>
        <staff>1</staff>
        <lyric number="1" placement="below">
          <syllabic>single</syllabic>
          <text>$</text>
        </lyric>
      </note>
      <note>
        <pitch>
          <step>C</step>
          <octave>3</octave>
        </pitch>
        <duration>1</duration>
        <voice>1</voice>
        <type>16th</type>
        <stem>up</stem>
        <staff>1</staff>
        <lyric number="1" placement="below">
          <syllabic>single</syllabic>
          <text>$</text>
        </lyric>
      </note>
      <direction placement="above">
        <direction-type>
          <dynamics>
            <p/>
          </dynamics>
        </direction-type>
        <staff>1</staff>
      </direction>
      <note>
        <pitch>
          <step>C</step>
          <octave>3</octave>
        </pitch>
        <duration>1</duration>
        <voice>1</voice>
        <type>16th</type>
        <stem>up</stem>
        <staff>1</staff>
        <notations>
          <articulations>
            <accent placement="below"/>
          </articulations>
        </notations>
        <lyric number="1" placement="below">
          <syllabic>single</syllabic>
          <text>$</text>
        </lyric>
      </note>
      <note>
        <pitch>
          <step>C</step>
          <octave>3</octave>
        </pitch>
        <duration>1</duration>
        <voice>1</voice>
        <type>16th</type>
        <stem>up</stem>
        <staff>1</staff>
        <lyric number="1" placement="below">
          <syllabic>single</syllabic>
          <text>$</text>
        </lyric>
      </note>
      <note>
        <pitch>
          <step>C</step>
          <octave>3</octave>
        </pitch>
        <duration>1</duration>
        <voice>1</voice>
        <type>16th</type>
        <stem>up</stem>
        <staff>1</staff>
        <lyric number="1" placement="below">
          <syllabic>single</syllabic>
          <text>$</text>
        </lyric>
      </note>
      <note>
        <pitch>
          <step>C</step>
          <octave>3</octave>
        </pitch>
        <duration>1</duration>
        <voice>1</voice>
        <type>16th</type>
        <stem>up</stem>
        <staff>1</staff>
        <lyric number="1" placement="below">
          <syllabic>single</syllabic>
          <text>$</text>
        </lyric>
      </note>
    </measure>
    <measure number="9">
      <attributes>
        <divisions>4</divisions>
      </attributes>
      <direction placement="above">
        <direction-type>
          <dynamics>
            <fff/>
          </dynamics>
        </direction-type>
        <staff>1</staff>
      </direction>
      <note>
        <pitch>
          <step>C</step>
          <octave>3</octave>
        </pitch>
        <duration>1</duration>
        <voice>1</voice>
        <type>16th</type>
        <stem>up</stem>
        <staff>1</staff>
        <notations>
          <articulations>
            <accent placement="below"/>
          </articulations>
        </notations>
        <lyric number="1" placement="below">
          <syllabic>single</syllabic>
          <text>$</text>
        </lyric>
      </note>
      <note>
        <pitch>
          <step>C</step>
          <octave>3</octave>
        </pitch>
        <duration>1</duration>
        <voice>1</voice>
        <type>16th</type>
        <stem>up</stem>
        <staff>1</staff>
        <lyric number="1" placement="below">
          <syllabic>single</syllabic>
          <text>$</text>
        </lyric>
      </note>
      <note>
        <pitch>
          <step>C</step>
          <octave>3</octave>
        </pitch>
        <duration>1</duration>
        <voice>1</voice>
        <type>16th</type>
        <stem>up</stem>
        <staff>1</staff>
        <lyric number="1" placement="below">
          <syllabic>single</syllabic>
          <text>$</text>
        </lyric>
      </note>
      <note>
        <pitch>
          <step>C</step>
          <octave>3</octave>
        </pitch>
        <duration>1</duration>
        <voice>1</voice>
        <type>16th</type>
        <stem>up</stem>
        <staff>1</staff>
        <lyric number="1" placement="below">
          <syllabic>single</syllabic>
          <text>$</text>
        </lyric>
      </note>
      <note>
        <pitch>
          <step>C</step>
          <octave>3</octave>
        </pitch>
        <duration>1</duration>
        <voice>1</voice>
        <type>16th</type>
        <stem>up</stem>
        <staff>1</staff>
        <notations>
          <articulations>
            <accent placement="below"/>
          </articulations>
        </notations>
        <lyric number="1" placement="below">
          <syllabic>single</syllabic>
          <text>$</text>
        </lyric>
      </note>
      <note>
        <pitch>
          <step>C</step>
          <octave>3</octave>
        </pitch>
        <duration>1</duration>
        <voice>1</voice>
        <type>16th</type>
        <stem>up</stem>
        <staff>1</staff>
        <lyric number="1" placement="below">
          <syllabic>single</syllabic>
          <text>$</text>
        </lyric>
      </note>
      <note>
        <pitch>
          <step>C</step>
          <octave>3</octave>
        </pitch>
        <duration>1</duration>
        <voice>1</voice>
        <type>16th</type>
        <stem>up</stem>
        <staff>1</staff>
        <lyric number="1" placement="below">
          <syllabic>single</syllabic>
          <text>$</text>
        </lyric>
      </note>
      <note>
        <pitch>
          <step>C</step>
          <octave>3</octave>
        </pitch>
        <duration>1</duration>
        <voice>1</voice>
        <type>16th</type>
        <stem>up</stem>
        <staff>1</staff>
        <lyric number="1" placement="below">
          <syllabic>single</syllabic>
          <text>$</text>
        </lyric>
      </note>
      <direction placement="above">
        <direction-type>
          <dynamics>
            <pp/>
          </dynamics>
        </direction-type>
        <staff>1</staff>
      </direction>
      <note>
        <pitch>
          <step>E</step>
          <octave>4</octave>
        </pitch>
        <duration>1</duration>
        <voice>1</voice>
        <type>16th</type>
        <stem>down</stem>
        <staff>1</staff>
        <notations>
          <articulations>
            <accent placement="above"/>
          </articulations>
        </notations>
        <lyric number="1" placement="below">
          <syllabic>single</syllabic>
          <text>$</text>
        </lyric>
      </note>
      <direction>
        <direction-type>
          <wedge type="crescendo" number="1"/>
        </direction-type>
        <staff>1</staff>
      </direction>
      <note>
        <pitch>
          <step>D</step>
          <octave>4</octave>
        </pitch>
        <duration>1</duration>
        <voice>1</voice>
        <type>16th</type>
        <stem>down</stem>
        <staff>1</staff>
        <lyric number="1" placement="below">
          <syllabic>single</syllabic>
          <text>$</text>
        </lyric>
      </note>
      <note>
        <pitch>
          <step>C</step>
          <octave>4</octave>
        </pitch>
        <duration>1</duration>
        <voice>1</voice>
        <type>16th</type>
        <stem>down</stem>
        <staff>1</staff>
        <lyric number="1" placement="below">
          <syllabic>single</syllabic>
          <text>$</text>
        </lyric>
      </note>
      <note>
        <pitch>
          <step>B</step>
          <octave>3</octave>
        </pitch>
        <duration>1</duration>
        <voice>1</voice>
        <type>16th</type>
        <stem>down</stem>
        <staff>1</staff>
        <lyric number="1" placement="below">
          <syllabic>single</syllabic>
          <text>$</text>
        </lyric>
      </note>
    </measure>
    <measure number="10">
      <attributes>
        <divisions>4</divisions>
      </attributes>
      <note>
        <pitch>
          <step>A</step>
          <octave>3</octave>
        </pitch>
        <duration>1</duration>
        <voice>1</voice>
        <type>16th</type>
        <stem>down</stem>
        <staff>1</staff>
        <notations>
          <articulations>
            <accent placement="above"/>
          </articulations>
        </notations>
        <lyric number="1" placement="below">
          <syllabic>single</syllabic>
          <text>$</text>
        </lyric>
      </note>
      <note>
        <pitch>
          <step>G</step>
          <octave>3</octave>
        </pitch>
        <duration>1</duration>
        <voice>1</voice>
        <type>16th</type>
        <stem>down</stem>
        <staff>1</staff>
        <lyric number="1" placement="below">
          <syllabic>single</syllabic>
          <text>$</text>
        </lyric>
      </note>
      <note>
        <pitch>
          <step>F</step>
          <octave>3</octave>
        </pitch>
        <duration>1</duration>
        <voice>1</voice>
        <type>16th</type>
        <stem>down</stem>
        <staff>1</staff>
        <lyric number="1" placement="below">
          <syllabic>single</syllabic>
          <text>$</text>
        </lyric>
      </note>
      <note>
        <pitch>
          <step>E</step>
          <octave>3</octave>
        </pitch>
        <duration>1</duration>
        <voice>1</voice>
        <type>16th</type>
        <stem>down</stem>
        <staff>1</staff>
        <lyric number="1" placement="below">
          <syllabic>single</syllabic>
          <text>$</text>
        </lyric>
      </note>
      <note>
        <pitch>
          <step>D</step>
          <octave>3</octave>
        </pitch>
        <duration>1</duration>
        <voice>1</voice>
        <type>16th</type>
        <stem>down</stem>
        <staff>1</staff>
        <notations>
          <articulations>
            <accent placement="above"/>
          </articulations>
        </notations>
        <lyric number="1" placement="below">
          <syllabic>single</syllabic>
          <text>$</text>
        </lyric>
      </note>
      <note>
        <pitch>
          <step>C</step>
          <octave>3</octave>
        </pitch>
        <duration>1</duration>
        <voice>1</voice>
        <type>16th</type>
        <stem>up</stem>
        <staff>1</staff>
        <lyric number="1" placement="below">
          <syllabic>single</syllabic>
          <text>$</text>
        </lyric>
      </note>
      <note>
        <pitch>
          <step>B</step>
          <octave>2</octave>
        </pitch>
        <duration>1</duration>
        <voice>1</voice>
        <type>16th</type>
        <stem>up</stem>
        <staff>1</staff>
        <lyric number="1" placement="below">
          <syllabic>single</syllabic>
          <text>$</text>
        </lyric>
      </note>
      <note>
        <pitch>
          <step>A</step>
          <octave>2</octave>
        </pitch>
        <duration>1</duration>
        <voice>1</voice>
        <type>16th</type>
        <stem>up</stem>
        <staff>1</staff>
        <lyric number="1" placement="below">
          <syllabic>single</syllabic>
          <text>$</text>
        </lyric>
      </note>
      <direction>
        <direction-type>
          <wedge type="diminuendo" number="2"/>
        </direction-type>
        <direction-type>
          <wedge type="stop" number="1"/>
        </direction-type>
        <staff>1</staff>
      </direction>
      <direction placement="above">
        <direction-type>
          <dynamics>
            <ff/>
          </dynamics>
        </direction-type>
        <staff>1</staff>
      </direction>
      <note>
        <pitch>
          <step>G</step>
          <octave>2</octave>
        </pitch>
        <duration>1</duration>
        <voice>1</voice>
        <type>16th</type>
        <stem>up</stem>
        <staff>1</staff>
        <notations>
          <articulations>
            <accent placement="below"/>
          </articulations>
        </notations>
        <lyric number="1" placement="below">
          <syllabic>single</syllabic>
          <text>$</text>
        </lyric>
      </note>
      <note>
        <pitch>
          <step>G</step>
          <octave>2</octave>
        </pitch>
        <duration>1</duration>
        <voice>1</voice>
        <type>16th</type>
        <stem>up</stem>
        <staff>1</staff>
        <lyric number="1" placement="below">
          <syllabic>single</syllabic>
          <text>$</text>
        </lyric>
      </note>
      <note>
        <pitch>
          <step>G</step>
          <octave>2</octave>
        </pitch>
        <duration>1</duration>
        <voice>1</voice>
        <type>16th</type>
        <stem>up</stem>
        <staff>1</staff>
        <lyric number="1" placement="below">
          <syllabic>single</syllabic>
          <text>$</text>
        </lyric>
      </note>
      <direction placement="above">
        <direction-type>
          <dynamics>
            <pp/>
          </dynamics>
        </direction-type>
        <staff>1</staff>
      </direction>
      <note>
        <pitch>
          <step>G</step>
          <octave>2</octave>
        </pitch>
        <duration>1</duration>
        <voice>1</voice>
        <type>16th</type>
        <stem>up</stem>
        <staff>1</staff>
        <lyric number="1" placement="below">
          <syllabic>single</syllabic>
          <text>$</text>
        </lyric>
      </note>
    </measure>
    <measure number="11">
      <attributes>
        <divisions>4</divisions>
      </attributes>
      <direction>
        <direction-type>
          <wedge type="crescendo" number="1"/>
        </direction-type>
        <direction-type>
          <wedge type="stop" number="2"/>
        </direction-type>
        <staff>1</staff>
      </direction>
      <note>
        <pitch>
          <step>G</step>
          <octave>2</octave>
        </pitch>
        <duration>1</duration>
        <voice>1</voice>
        <type>16th</type>
        <stem>up</stem>
        <staff>1</staff>
        <notations>
          <articulations>
            <accent placement="below"/>
          </articulations>
        </notations>
        <lyric number="1" placement="below">
          <syllabic>single</syllabic>
          <text>$</text>
        </lyric>
      </note>
      <note>
        <pitch>
          <step>G</step>
          <octave>2</octave>
        </pitch>
        <duration>1</duration>
        <voice>1</voice>
        <type>16th</type>
        <stem>up</stem>
        <staff>1</staff>
        <lyric number="1" placement="below">
          <syllabic>single</syllabic>
          <text>$</text>
        </lyric>
      </note>
      <note>
        <pitch>
          <step>G</step>
          <octave>2</octave>
        </pitch>
        <duration>1</duration>
        <voice>1</voice>
        <type>16th</type>
        <stem>up</stem>
        <staff>1</staff>
        <lyric number="1" placement="below">
          <syllabic>single</syllabic>
          <text>$</text>
        </lyric>
      </note>
      <note>
        <pitch>
          <step>G</step>
          <octave>2</octave>
        </pitch>
        <duration>1</duration>
        <voice>1</voice>
        <type>16th</type>
        <stem>up</stem>
        <staff>1</staff>
        <lyric number="1" placement="below">
          <syllabic>single</syllabic>
          <text>$</text>
        </lyric>
      </note>
      <direction>
        <direction-type>
          <wedge type="stop" number="1"/>
        </direction-type>
        <staff>1</staff>
      </direction>
      <direction placement="above">
        <direction-type>
          <dynamics>
            <fff/>
          </dynamics>
        </direction-type>
        <staff>1</staff>
      </direction>
      <note>
        <pitch>
          <step>G</step>
          <octave>2</octave>
        </pitch>
        <duration>1</duration>
        <voice>1</voice>
        <type>16th</type>
        <stem>up</stem>
        <staff>1</staff>
        <notations>
          <articulations>
            <accent placement="below"/>
          </articulations>
        </notations>
        <lyric number="1" placement="below">
          <syllabic>single</syllabic>
          <text>$</text>
        </lyric>
      </note>
      <note>
        <rest/>
        <duration>1</duration>
        <voice>1</voice>
        <type>16th</type>
        <staff>1</staff>
      </note>
      <note>
        <rest/>
        <duration>6</duration>
        <voice>1</voice>
        <type>quarter</type>
        <dot/>
        <staff>1</staff>
      </note>
    </measure>
    <measure number="12">
      <attributes>
        <divisions>4</divisions>
      </attributes>
      <note>
        <rest/>
        <duration>12</duration>
        <voice>1</voice>
        <type>whole</type>
        <staff>1</staff>
      </note>
      <barline location="right">
        <bar-style>light-heavy</bar-style>
      </barline>
    </measure>
  </part>
</score-partwise>