<?xml version="1.0" encoding="UTF-8"?>
<!DOCTYPE score-partwise PUBLIC "-//Recordare//DTD MusicXML 4.0 Partwise//EN" "http://www.musicxml.org/dtds/partwise.dtd">
<score-partwise version="4.0">
  <work>
    <work-title>Unbenannte Partitur</work-title>
    </work>
  <identification>
    <creator type="composer">Komponist / Arrangeur</creator>
    <encoding>
      <software>MuseScore 4.2.1</software>
      <encoding-date>2024-03-06</encoding-date>
      <supports element="accidental" type="yes"/>
      <supports element="beam" type="yes"/>
      <supports element="print" attribute="new-page" type="yes" value="yes"/>
      <supports element="print" attribute="new-system" type="yes" value="yes"/>
      <supports element="stem" type="yes"/>
      </encoding>
    </identification>
  <defaults>
    <scaling>
      <millimeters>6.99912</millimeters>
      <tenths>40</tenths>
      </scaling>
    <page-layout>
      <page-height>1696.93</page-height>
      <page-width>1200.48</page-width>
      <page-margins type="even">
        <left-margin>85.725</left-margin>
        <right-margin>85.725</right-margin>
        <top-margin>85.725</top-margin>
        <bottom-margin>85.725</bottom-margin>
        </page-margins>
      <page-margins type="odd">
        <left-margin>85.725</left-margin>
        <right-margin>85.725</right-margin>
        <top-margin>85.725</top-margin>
        <bottom-margin>85.725</bottom-margin>
        </page-margins>
      </page-layout>
    <appearance>
      <line-width type="light barline">1.8</line-width>
      <line-width type="heavy barline">5.5</line-width>
      <line-width type="beam">5</line-width>
      <line-width type="bracket">4.5</line-width>
      <line-width type="dashes">1</line-width>
      <line-width type="enclosure">1</line-width>
      <line-width type="ending">1.1</line-width>
      <line-width type="extend">1</line-width>
      <line-width type="leger">1.6</line-width>
      <line-width type="pedal">1.1</line-width>
      <line-width type="octave shift">1.1</line-width>
      <line-width type="slur middle">2.1</line-width>
      <line-width type="slur tip">0.5</line-width>
      <line-width type="staff">1.1</line-width>
      <line-width type="stem">1</line-width>
      <line-width type="tie middle">2.1</line-width>
      <line-width type="tie tip">0.5</line-width>
      <line-width type="tuplet bracket">1</line-width>
      <line-width type="wedge">1.2</line-width>
      <note-size type="cue">70</note-size>
      <note-size type="grace">70</note-size>
      <note-size type="grace-cue">49</note-size>
      </appearance>
    <music-font font-family="Leland"/>
    <word-font font-family="Edwin" font-size="10"/>
    <lyric-font font-family="Edwin" font-size="10"/>
    </defaults>
  <credit page="1">
    <credit-type>title</credit-type>
    <credit-words default-x="600.24" default-y="1611.42" justify="center" valign="top" font-size="22">Unbenannte Partitur</credit-words>
    </credit>
  <credit page="1">
    <credit-type>subtitle</credit-type>
    <credit-words default-x="600.24" default-y="1554.27" justify="center" valign="top" font-size="14">Untertitel</credit-words>
    </credit>
  <credit page="1">
    <credit-type>composer</credit-type>
    <credit-words default-x="1114.76" default-y="1511.42" justify="right" valign="top">Komponist / Arrangeur</credit-words>
    </credit>
  <part-list>
    <score-part id="P1">
      <part-name>Tenor</part-name>
      <part-abbreviation>T.</part-abbreviation>
      <score-instrument id="P1-I1">
        <instrument-name>Tenor</instrument-name>
        <instrument-sound>voice.tenor</instrument-sound>
        </score-instrument>
      <midi-device id="P1-I1" port="1"></midi-device>
      <midi-instrument id="P1-I1">
        <midi-channel>1</midi-channel>
        <midi-program>53</midi-program>
        <volume>78.7402</volume>
        <pan>0</pan>
        </midi-instrument>
      </score-part>
    </part-list>
  <part id="P1">
    <measure number="1" width="158.85">
      <print>
        <system-layout>
          <system-margins>
            <left-margin>50.00</left-margin>
            <right-margin>0.00</right-margin>
            </system-margins>
          <top-system-distance>170.00</top-system-distance>
          </system-layout>
        </print>
      <attributes>
        <divisions>2</divisions>
        <key>
          <fifths>0</fifths>
          </key>
        <time>
          <beats>4</beats>
          <beat-type>4</beat-type>
          </time>
        <clef>
          <sign>G</sign>
          <line>2</line>
          <clef-octave-change>-1</clef-octave-change>
          </clef>
        </attributes>
      <direction placement="above">
        <direction-type>
          <metronome parentheses="no" default-x="-31.18" relative-y="20.00">
            <beat-unit>quarter</beat-unit>
            <per-minute>80</per-minute>
            </metronome>
          </direction-type>
        <sound tempo="80"/>
        </direction>
      <note default-x="102.13" default-y="-10.00">
        <rest measure="yes"/>
        <duration>8</duration>
        <voice>1</voice>
        </note>
      </measure>
    <measure number="2" width="169.05">
      <note default-x="15.85" default-y="-40.00">
        <pitch>
          <step>E</step>
          <octave>3</octave>
          </pitch>
        <duration>2</duration>
        <voice>1</voice>
        <type>quarter</type>
        <stem>up</stem>
        <lyric number="1" default-x="8.98" default-y="-49.92" relative-y="-30.00">
          <syllabic>single</syllabic>
          <text>ga:</text>
          </lyric>
        </note>
      <note default-x="56.14" default-y="-35.00">
        <pitch>
          <step>F</step>
          <octave>3</octave>
          </pitch>
        <duration>2</duration>
        <voice>1</voice>
        <type>quarter</type>
        <stem>up</stem>
        <lyric number="1" default-x="8.88" default-y="-49.92" relative-y="-30.00">
          <syllabic>single</syllabic>
          <text>mi:</text>
          </lyric>
        </note>
      <note default-x="93.18" default-y="-30.00">
        <pitch>
          <step>G</step>
          <octave>3</octave>
          </pitch>
        <duration>2</duration>
        <voice>1</voice>
        <type>quarter</type>
        <stem>up</stem>
        <lyric number="1" default-x="8.81" default-y="-49.92" relative-y="-30.00">
          <syllabic>single</syllabic>
          <text>la:</text>
          </lyric>
        </note>
      <note default-x="130.22" default-y="-25.00">
        <pitch>
          <step>A</step>
          <octave>3</octave>
          </pitch>
        <duration>2</duration>
        <voice>1</voice>
        <type>quarter</type>
        <stem>up</stem>
        <lyric number="1" default-x="8.88" default-y="-49.92" relative-y="-30.00">
          <syllabic>single</syllabic>
          <text>mi:</text>
          </lyric>
        </note>
      </measure>
    <measure number="3" width="125.91">
      <note default-x="13.00" default-y="-20.00">
        <pitch>
          <step>B</step>
          <octave>3</octave>
          </pitch>
        <duration>4</duration>
        <voice>1</voice>
        <type>half</type>
        <stem>down</stem>
        <lyric number="1" default-x="9.05" default-y="-49.92" relative-y="-30.00">
          <syllabic>single</syllabic>
          <text>ga:</text>
          </lyric>
        </note>
      <note default-x="68.56" default-y="-25.00">
        <pitch>
          <step>A</step>
          <octave>3</octave>
          </pitch>
        <duration>4</duration>
        <voice>1</voice>
        <type>half</type>
        <stem>up</stem>
        <lyric number="1" default-x="8.88" default-y="-49.92" relative-y="-30.00">
          <syllabic>single</syllabic>
          <text>mi:</text>
          </lyric>
        </note>
      </measure>
    <measure number="4" width="125.91">
      <note default-x="13.00" default-y="-30.00">
        <pitch>
          <step>G</step>
          <octave>3</octave>
          </pitch>
        <duration>4</duration>
        <voice>1</voice>
        <type>half</type>
        <stem>up</stem>
        <lyric number="1" default-x="8.81" default-y="-49.92" relative-y="-30.00">
          <syllabic>single</syllabic>
          <text>la:</text>
          </lyric>
        </note>
      <note default-x="68.56" default-y="-35.00">
        <pitch>
          <step>F</step>
          <octave>3</octave>
          </pitch>
        <duration>4</duration>
        <voice>1</voice>
        <type>half</type>
        <stem>up</stem>
        <lyric number="1" default-x="8.88" default-y="-49.92" relative-y="-30.00">
          <syllabic>single</syllabic>
          <text>mi:</text>
          </lyric>
        </note>
      </measure>
    <measure number="5" width="236.36">
      <note default-x="13.00" default-y="-40.00">
        <pitch>
          <step>E</step>
          <octave>3</octave>
          </pitch>
        <duration>1</duration>
        <voice>1</voice>
        <type>eighth</type>
        <stem>up</stem>
        <beam number="1">begin</beam>
        <lyric number="1" default-x="9.05" default-y="-49.92" relative-y="-30.00">
          <syllabic>single</syllabic>
          <text>ga:</text>
          </lyric>
        </note>
      <note default-x="43.88" default-y="-50.00">
        <pitch>
          <step>C</step>
          <octave>3</octave>
          </pitch>
        <duration>1</duration>
        <voice>1</voice>
        <type>eighth</type>
        <stem>up</stem>
        <beam number="1">continue</beam>
        <lyric number="1" default-x="8.88" default-y="-49.92" relative-y="-30.00">
          <syllabic>single</syllabic>
          <text>mi:</text>
          </lyric>
        </note>
      <note default-x="72.66" default-y="-40.00">
        <pitch>
          <step>E</step>
          <octave>3</octave>
          </pitch>
        <duration>1</duration>
        <voice>1</voice>
        <type>eighth</type>
        <stem>up</stem>
        <beam number="1">continue</beam>
        <lyric number="1" default-x="8.81" default-y="-49.92" relative-y="-30.00">
          <syllabic>single</syllabic>
          <text>la:</text>
          </lyric>
        </note>
      <note default-x="101.29" default-y="-45.00">
        <pitch>
          <step>D</step>
          <octave>3</octave>
          </pitch>
        <duration>1</duration>
        <voice>1</voice>
        <type>eighth</type>
        <stem>up</stem>
        <beam number="1">end</beam>
        <lyric number="1" default-x="8.88" default-y="-49.92" relative-y="-30.00">
          <syllabic>single</syllabic>
          <text>mi:</text>
          </lyric>
        </note>
      <note default-x="130.65" default-y="-40.00">
        <pitch>
          <step>E</step>
          <octave>3</octave>
          </pitch>
        <duration>1</duration>
        <voice>1</voice>
        <type>eighth</type>
        <stem>up</stem>
        <beam number="1">begin</beam>
        <lyric number="1" default-x="9.23" default-y="-49.92" relative-y="-30.00">
          <syllabic>single</syllabic>
          <text>sa:</text>
          </lyric>
        </note>
      <note default-x="156.01" default-y="-50.00">
        <pitch>
          <step>C</step>
          <octave>3</octave>
          </pitch>
        <duration>1</duration>
        <voice>1</voice>
        <type>eighth</type>
        <stem>up</stem>
        <beam number="1">continue</beam>
        <lyric number="1" default-x="9.14" default-y="-49.92" relative-y="-30.00">
          <syllabic>single</syllabic>
          <text>si:</text>
          </lyric>
        </note>
      <note default-x="181.20" default-y="-40.00">
        <pitch>
          <step>E</step>
          <octave>3</octave>
          </pitch>
        <duration>1</duration>
        <voice>1</voice>
        <type>eighth</type>
        <stem>up</stem>
        <beam number="1">continue</beam>
        <lyric number="1" default-x="9.23" default-y="-49.92" relative-y="-30.00">
          <syllabic>single</syllabic>
          <text>sa:</text>
          </lyric>
        </note>
      <note default-x="206.56" default-y="-30.00">
        <pitch>
          <step>G</step>
          <octave>3</octave>
          </pitch>
        <duration>1</duration>
        <voice>1</voice>
        <type>eighth</type>
        <stem>up</stem>
        <beam number="1">end</beam>
        <lyric number="1" default-x="9.14" default-y="-49.92" relative-y="-30.00">
          <syllabic>single</syllabic>
          <text>si:</text>
          </lyric>
        </note>
      </measure>
    <measure number="6" width="162.95">
      <note default-x="13.00" default-y="-40.00">
        <pitch>
          <step>E</step>
          <octave>3</octave>
          </pitch>
        <duration>2</duration>
        <voice>1</voice>
        <type>quarter</type>
        <stem>up</stem>
        <lyric number="1" default-x="9.23" default-y="-49.92" relative-y="-30.00">
          <syllabic>single</syllabic>
          <text>sa:</text>
          </lyric>
        </note>
      <note default-x="50.04" default-y="-35.00">
        <pitch>
          <step>F</step>
          <octave>3</octave>
          </pitch>
        <duration>2</duration>
        <voice>1</voice>
        <type>quarter</type>
        <stem>up</stem>
        <lyric number="1" default-x="8.81" default-y="-49.92" relative-y="-30.00">
          <syllabic>single</syllabic>
          <text>la:</text>
          </lyric>
        </note>
      <note default-x="87.07" default-y="-30.00">
        <pitch>
          <step>G</step>
          <octave>3</octave>
          </pitch>
        <duration>2</duration>
        <voice>1</voice>
        <type>quarter</type>
        <stem>up</stem>
        <lyric number="1" default-x="8.88" default-y="-49.92" relative-y="-30.00">
          <syllabic>single</syllabic>
          <text>mi:</text>
          </lyric>
        </note>
      <note default-x="124.11" default-y="-25.00">
        <pitch>
          <step>A</step>
          <octave>3</octave>
          </pitch>
        <duration>2</duration>
        <voice>1</voice>
        <type>quarter</type>
        <stem>up</stem>
        <lyric number="1" default-x="9.05" default-y="-49.92" relative-y="-30.00">
          <syllabic>single</syllabic>
          <text>ga:</text>
          </lyric>
        </note>
      </measure>
    <measure number="7" width="189.15">
      <print new-system="yes">
        <system-layout>
          <system-margins>
            <left-margin>0.00</left-margin>
            <right-margin>0.00</right-margin>
            </system-margins>
          <system-distance>185.00</system-distance>
          </system-layout>
        </print>
      <note default-x="58.10" default-y="-20.00">
        <pitch>
          <step>B</step>
          <octave>3</octave>
          </pitch>
        <duration>2</duration>
        <voice>1</voice>
        <type>quarter</type>
        <stem>down</stem>
        <lyric number="1" default-x="8.81" default-y="-44.92" relative-y="-30.00">
          <syllabic>single</syllabic>
          <text>la:</text>
          </lyric>
        </note>
      <note default-x="90.41" default-y="-25.00">
        <pitch>
          <step>A</step>
          <octave>3</octave>
          </pitch>
        <duration>2</duration>
        <voice>1</voice>
        <type>quarter</type>
        <stem>up</stem>
        <lyric number="1" default-x="8.88" default-y="-44.92" relative-y="-30.00">
          <syllabic>single</syllabic>
          <text>mi:</text>
          </lyric>
        </note>
      <note default-x="122.73" default-y="-30.00">
        <pitch>
          <step>G</step>
          <octave>3</octave>
          </pitch>
        <duration>2</duration>
        <voice>1</voice>
        <type>quarter</type>
        <stem>up</stem>
        <lyric number="1" default-x="9.23" default-y="-44.92" relative-y="-30.00">
          <syllabic>single</syllabic>
          <text>sa:</text>
          </lyric>
        </note>
      <note default-x="155.04" default-y="-40.00">
        <pitch>
          <step>E</step>
          <octave>3</octave>
          </pitch>
        <duration>2</duration>
        <voice>1</voice>
        <type>quarter</type>
        <stem>up</stem>
        <lyric number="1" default-x="8.81" default-y="-44.92" relative-y="-30.00">
          <syllabic>single</syllabic>
          <text>la:</text>
          </lyric>
        </note>
      </measure>
    <measure number="8" width="111.74">
      <note default-x="13.00" default-y="-40.00">
        <pitch>
          <step>E</step>
          <octave>3</octave>
          </pitch>
        <duration>4</duration>
        <voice>1</voice>
        <type>half</type>
        <stem>up</stem>
        <lyric number="1" default-x="8.88" default-y="-44.92" relative-y="-30.00">
          <syllabic>single</syllabic>
          <text>mi:</text>
          </lyric>
        </note>
      <note default-x="61.47" default-y="-30.00">
        <pitch>
          <step>G</step>
          <octave>3</octave>
          </pitch>
        <duration>4</duration>
        <voice>1</voice>
        <type>half</type>
        <stem>up</stem>
        <lyric number="1" default-x="9.05" default-y="-44.92" relative-y="-30.00">
          <syllabic>single</syllabic>
          <text>ga:</text>
          </lyric>
        </note>
      </measure>
    <measure number="9" width="111.74">
      <note default-x="13.00" default-y="-20.00">
        <pitch>
          <step>B</step>
          <octave>3</octave>
          </pitch>
        <duration>4</duration>
        <voice>1</voice>
        <type>half</type>
        <stem>down</stem>
        <lyric number="1" default-x="8.81" default-y="-44.92" relative-y="-30.00">
          <syllabic>single</syllabic>
          <text>la:</text>
          </lyric>
        </note>
      <note default-x="61.47" default-y="-30.00">
        <pitch>
          <step>G</step>
          <octave>3</octave>
          </pitch>
        <duration>4</duration>
        <voice>1</voice>
        <type>half</type>
        <stem>up</stem>
        <lyric number="1" default-x="8.88" default-y="-44.92" relative-y="-30.00">
          <syllabic>single</syllabic>
          <text>mi:</text>
          </lyric>
        </note>
      </measure>
    <measure number="10" width="88.47">
      <note default-x="13.00" default-y="-40.00">
        <pitch>
          <step>E</step>
          <octave>3</octave>
          </pitch>
        <duration>8</duration>
        <voice>1</voice>
        <type>whole</type>
        <lyric number="1" default-x="8.27" default-y="-44.92" relative-y="-30.00">
          <syllabic>single</syllabic>
          <text>sa:</text>
          </lyric>
        </note>
      </measure>
    <measure number="11" width="88.47">
      <note default-x="13.00" default-y="-30.00">
        <pitch>
          <step>G</step>
          <octave>3</octave>
          </pitch>
        <duration>8</duration>
        <voice>1</voice>
        <type>whole</type>
        <lyric number="1" default-x="7.85" default-y="-44.92" relative-y="-30.00">
          <syllabic>single</syllabic>
          <text>la:</text>
          </lyric>
        </note>
      </measure>
    <measure number="12" width="88.47">
      <note default-x="13.00" default-y="-20.00">
        <pitch>
          <step>B</step>
          <octave>3</octave>
          </pitch>
        <duration>8</duration>
        <voice>1</voice>
        <type>whole</type>
        <lyric number="1" default-x="9.84" default-y="-44.92" relative-y="-30.00">
          <syllabic>single</syllabic>
          <text>mi:</text>
          </lyric>
        </note>
      </measure>
    <measure number="13" width="88.47">
      <note default-x="13.00" default-y="-30.00">
        <pitch>
          <step>G</step>
          <octave>3</octave>
          </pitch>
        <duration>8</duration>
        <voice>1</voice>
        <type>whole</type>
        <lyric number="1" default-x="8.09" default-y="-44.92" relative-y="-30.00">
          <syllabic>single</syllabic>
          <text>ga:</text>
          </lyric>
        </note>
      </measure>
    <measure number="14" width="87.51">
      <note default-x="36.35" default-y="-10.00">
        <rest measure="yes"/>
        <duration>8</duration>
        <voice>1</voice>
        </note>
      </measure>
    <measure number="15" width="87.51">
      <note default-x="36.35" default-y="-10.00">
        <rest measure="yes"/>
        <duration>8</duration>
        <voice>1</voice>
        </note>
      </measure>
    <measure number="16" width="87.51">
      <note default-x="36.35" default-y="-10.00">
        <rest measure="yes"/>
        <duration>8</duration>
        <voice>1</voice>
        </note>
      </measure>
    <measure number="17" width="127.09">
      <print new-system="yes">
        <system-layout>
          <system-margins>
            <left-margin>0.00</left-margin>
            <right-margin>0.00</right-margin>
            </system-margins>
          <system-distance>185.00</system-distance>
          </system-layout>
        </print>
      <note default-x="72.70" default-y="-10.00">
        <rest measure="yes"/>
        <duration>8</duration>
        <voice>1</voice>
        </note>
      </measure>
    <measure number="18" width="81.99">
      <note default-x="33.60" default-y="-10.00">
        <rest measure="yes"/>
        <duration>8</duration>
        <voice>1</voice>
        </note>
      </measure>
    <measure number="19" width="81.99">
      <note default-x="33.60" default-y="-10.00">
        <rest measure="yes"/>
        <duration>8</duration>
        <voice>1</voice>
        </note>
      </measure>
    <measure number="20" width="81.99">
      <note default-x="33.60" default-y="-10.00">
        <rest measure="yes"/>
        <duration>8</duration>
        <voice>1</voice>
        </note>
      </measure>
    <measure number="21" width="81.99">
      <note default-x="33.60" default-y="-10.00">
        <rest measure="yes"/>
        <duration>8</duration>
        <voice>1</voice>
        </note>
      </measure>
    <measure number="22" width="81.99">
      <note default-x="33.60" default-y="-10.00">
        <rest measure="yes"/>
        <duration>8</duration>
        <voice>1</voice>
        </note>
      </measure>
    <measure number="23" width="81.99">
      <note default-x="33.60" default-y="-10.00">
        <rest measure="yes"/>
        <duration>8</duration>
        <voice>1</voice>
        </note>
      </measure>
    <measure number="24" width="81.99">
      <note default-x="33.60" default-y="-10.00">
        <rest measure="yes"/>
        <duration>8</duration>
        <voice>1</voice>
        </note>
      </measure>
    <measure number="25" width="81.99">
      <note default-x="33.60" default-y="-10.00">
        <rest measure="yes"/>
        <duration>8</duration>
        <voice>1</voice>
        </note>
      </measure>
    <measure number="26" width="81.99">
      <note default-x="33.60" default-y="-10.00">
        <rest measure="yes"/>
        <duration>8</duration>
        <voice>1</voice>
        </note>
      </measure>
    <measure number="27" width="81.99">
      <note default-x="33.60" default-y="-10.00">
        <rest measure="yes"/>
        <duration>8</duration>
        <voice>1</voice>
        </note>
      </measure>
    <measure number="28" width="81.99">
      <note default-x="33.60" default-y="-10.00">
        <rest measure="yes"/>
        <duration>8</duration>
        <voice>1</voice>
        </note>
      </measure>
    <measure number="29" width="288.78">
      <print new-system="yes">
        <system-layout>
          <system-margins>
            <left-margin>0.00</left-margin>
            <right-margin>0.00</right-margin>
            </system-margins>
          <system-distance>185.00</system-distance>
          </system-layout>
        </print>
      <note default-x="153.54" default-y="-10.00">
        <rest measure="yes"/>
        <duration>8</duration>
        <voice>1</voice>
        </note>
      </measure>
    <measure number="30" width="243.68">
      <note default-x="114.44" default-y="-10.00">
        <rest measure="yes"/>
        <duration>8</duration>
        <voice>1</voice>
        </note>
      </measure>
    <measure number="31" width="243.68">
      <note default-x="114.44" default-y="-10.00">
        <rest measure="yes"/>
        <duration>8</duration>
        <voice>1</voice>
        </note>
      </measure>
    <measure number="32" width="252.88">
      <note default-x="114.44" default-y="-10.00">
        <rest measure="yes"/>
        <duration>8</duration>
        <voice>1</voice>
        </note>
      <barline location="right">
        <bar-style>light-heavy</bar-style>
        </barline>
      </measure>
    </part>
  </score-partwise>
